<?xml version="1.0" standalone="no"?>
<!DOCTYPE svg PUBLIC "-//W3C//DTD SVG 20010904//EN"
 "http://www.w3.org/TR/2001/REC-SVG-20010904/DTD/svg10.dtd">
<svg version="1.0" xmlns="http://www.w3.org/2000/svg"
 width="139.000000pt" height="139.000000pt" viewBox="0 0 139.000000 139.000000"
 preserveAspectRatio="xMidYMid meet">
<metadata>
Created by potrace 1.14, written by Peter Selinger 2001-2017
</metadata>
<g transform="translate(0.000000,139.000000) scale(0.100000,-0.100000)"
fill="#000000" stroke="none">
<path d="M560 1375 c-283 -57 -510 -288 -555 -562 l-7 -43 84 0 83 0 0 -75 0
-75 -83 0 -83 0 7 -37 c24 -143 110 -302 214 -395 220 -200 519 -242 790 -111
79 38 108 59 180 132 96 97 146 180 179 301 32 115 35 110 -61 110 l-83 0 0
75 0 75 84 0 84 0 -7 39 c-11 71 -45 166 -83 230 -151 257 -454 394 -743 336z
m290 -30 c224 -53 422 -238 489 -459 12 -37 21 -72 21 -77 0 -5 -33 -9 -74 -9
-73 0 -75 1 -94 33 -43 68 -132 126 -194 127 -22 0 -29 6 -34 28 -31 145 -138
242 -269 242 -124 0 -242 -100 -263 -221 -7 -42 -9 -44 -52 -51 -61 -10 -128
-54 -170 -111 l-35 -47 -72 0 c-40 0 -73 4 -73 9 0 28 47 155 77 211 55 100
180 218 284 269 46 22 111 47 144 55 80 19 234 19 315 1z m-53 -193 c64 -33
113 -102 113 -160 0 -25 -6 -31 -55 -51 -63 -26 -127 -92 -146 -149 -17 -53
-22 -56 -73 -42 -102 28 -162 118 -154 229 11 156 173 245 315 173z m-348
-297 c26 -63 92 -127 149 -146 53 -17 56 -22 42 -72 -15 -57 -60 -112 -113
-138 -61 -32 -161 -24 -219 16 -62 43 -101 123 -95 191 11 110 95 201 188 203
22 1 29 -7 48 -54z m608 34 c127 -62 161 -224 70 -335 -33 -39 -96 -73 -138
-74 -21 0 -29 8 -48 55 -27 65 -94 129 -153 147 -22 6 -42 18 -45 25 -8 19 24
98 53 132 58 69 175 91 261 50z m-296 -250 c91 -28 149 -109 149 -209 0 -126
-94 -220 -222 -220 -88 0 -193 91 -205 177 -5 39 -5 39 43 58 81 31 139 95
168 188 6 20 16 21 67 6z m-566 -76 c46 -73 111 -118 188 -131 40 -7 42 -10
49 -51 16 -93 92 -179 182 -206 165 -49 312 46 350 228 5 21 12 27 34 27 62 1
151 59 194 128 19 31 21 32 94 32 41 0 74 -4 74 -9 0 -5 -9 -40 -21 -77 -35
-114 -77 -182 -169 -275 -70 -70 -102 -94 -170 -127 -108 -52 -191 -72 -305
-72 -186 0 -338 63 -470 193 -90 90 -141 172 -174 281 -12 37 -21 72 -21 77 0
5 33 9 74 9 70 0 75 -2 91 -27z"/>
<path d="M565 1324 c-38 -7 -105 -31 -150 -52 -166 -80 -276 -205 -336 -381
-21 -60 -23 -75 -10 -67 5 3 12 21 15 40 11 58 82 187 135 247 251 281 701
281 952 0 53 -60 124 -189 135 -247 3 -19 11 -37 17 -41 30 -19 -36 145 -95
233 -90 135 -247 238 -411 269 -94 18 -158 18 -252 -1z"/>
<path d="M602 1054 c-31 -22 -27 -54 13 -110 19 -27 43 -64 52 -81 17 -34 33
-43 33 -19 0 7 15 33 33 57 37 47 67 102 67 119 0 15 -38 50 -55 50 -8 0 -24
-9 -35 -20 l-21 -21 -26 21 c-31 24 -33 24 -61 4z"/>
<path d="M420 813 c0 -5 -20 -31 -45 -56 -45 -48 -56 -82 -33 -105 7 -7 21
-12 33 -12 12 0 26 5 33 12 9 9 12 9 12 -1 0 -25 -20 -49 -52 -62 l-33 -13 48
-4 c26 -2 67 -2 90 0 l42 4 -33 13 c-52 21 -75 78 -23 58 23 -8 33 -8 45 2 28
23 18 58 -30 113 -26 29 -48 55 -50 57 -2 2 -4 0 -4 -6z"/>
<path d="M923 770 c-24 -32 -43 -62 -43 -67 0 -7 66 -103 83 -120 3 -2 25 24
50 58 l46 62 -41 59 c-23 32 -44 61 -47 63 -3 1 -25 -23 -48 -55z"/>
<path d="M675 520 c-12 -13 -15 -27 -11 -44 5 -20 3 -24 -9 -20 -20 8 -65 -22
-65 -44 0 -55 64 -80 105 -42 l22 20 23 -20 c43 -37 100 -17 100 35 0 26 -42
61 -60 50 -6 -4 -10 7 -10 27 0 19 -5 39 -12 46 -18 18 -63 14 -83 -8z"/>
<path d="M710 363 c0 -23 -19 -42 -59 -60 -22 -10 -13 -11 63 -12 89 -1 96 2
54 23 -12 6 -28 22 -34 34 -16 33 -24 38 -24 15z"/>
<path d="M64 546 c30 -121 117 -261 210 -338 110 -92 286 -158 421 -158 135 0
311 66 421 158 93 77 180 217 210 338 5 18 3 25 -3 21 -6 -4 -14 -22 -17 -41
-11 -58 -82 -188 -136 -248 -63 -71 -170 -143 -263 -177 -65 -23 -86 -26 -212
-26 -126 0 -147 3 -212 26 -93 34 -200 106 -263 177 -54 60 -125 190 -136 248
-3 19 -11 37 -17 41 -6 4 -8 -3 -3 -21z"/>
</g>
</svg>
